<mxfile host="Electron" modified="2023-10-07T12:21:50.232Z" agent="Mozilla/5.0 (Windows NT 10.0; Win64; x64) AppleWebKit/537.36 (KHTML, like Gecko) draw.io/22.0.2 Chrome/114.0.5735.289 Electron/25.8.4 Safari/537.36" etag="p459dPsKuw8yeEVf72ps" version="22.0.2" type="device">
  <diagram name="Página-1" id="8WAEElBBeGfERpxOIVl3">
    <mxGraphModel dx="1380" dy="272" grid="1" gridSize="10" guides="1" tooltips="1" connect="1" arrows="1" fold="1" page="1" pageScale="1" pageWidth="100" pageHeight="100" background="#ffffff" math="0" shadow="0">
      <root>
        <mxCell id="0" />
        <mxCell id="1" parent="0" />
        <mxCell id="b9wr8HyZEDaTZje5uN5I-6" value="" style="rounded=0;whiteSpace=wrap;html=1;sketch=1;hachureGap=4;jiggle=2;curveFitting=1;fontFamily=Architects Daughter;fontSource=https%3A%2F%2Ffonts.googleapis.com%2Fcss%3Ffamily%3DArchitects%2BDaughter;fontSize=20;strokeWidth=4;fillColor=default;" parent="1" vertex="1">
          <mxGeometry x="-480" y="306" width="870" height="384" as="geometry" />
        </mxCell>
        <mxCell id="b9wr8HyZEDaTZje5uN5I-1" value="OLT" style="rounded=0;whiteSpace=wrap;html=1;sketch=1;hachureGap=4;jiggle=2;curveFitting=1;fontFamily=Architects Daughter;fontSource=https%3A%2F%2Ffonts.googleapis.com%2Fcss%3Ffamily%3DArchitects%2BDaughter;fontSize=20;labelBackgroundColor=none;fillColor=#5D7F99;strokeColor=#D0CEE2;fontColor=#1A1A1A;gradientColor=none;strokeWidth=2;" parent="1" vertex="1">
          <mxGeometry x="-450" y="360" width="350" height="60" as="geometry" />
        </mxCell>
        <mxCell id="b9wr8HyZEDaTZje5uN5I-2" value="APLICAÇÃO" style="whiteSpace=wrap;html=1;aspect=fixed;sketch=1;hachureGap=4;jiggle=2;curveFitting=1;fontFamily=Architects Daughter;fontSource=https%3A%2F%2Ffonts.googleapis.com%2Fcss%3Ffamily%3DArchitects%2BDaughter;fontSize=20;labelBackgroundColor=none;fillColor=#5D7F99;strokeColor=#D0CEE2;fontColor=#1A1A1A;strokeWidth=2;" parent="1" vertex="1">
          <mxGeometry x="120" y="455" width="190" height="190" as="geometry" />
        </mxCell>
        <mxCell id="b9wr8HyZEDaTZje5uN5I-3" style="edgeStyle=orthogonalEdgeStyle;rounded=0;sketch=1;hachureGap=4;jiggle=2;curveFitting=1;orthogonalLoop=1;jettySize=auto;html=1;entryX=0.466;entryY=1.05;entryDx=0;entryDy=0;entryPerimeter=0;fontFamily=Architects Daughter;fontSource=https%3A%2F%2Ffonts.googleapis.com%2Fcss%3Ffamily%3DArchitects%2BDaughter;fontSize=16;shape=link;flowAnimation=1;labelBackgroundColor=none;strokeColor=#736CA8;fontColor=default;exitX=0;exitY=0.5;exitDx=0;exitDy=0;" parent="1" source="b9wr8HyZEDaTZje5uN5I-2" target="b9wr8HyZEDaTZje5uN5I-1" edge="1">
          <mxGeometry relative="1" as="geometry">
            <Array as="points">
              <mxPoint x="-287" y="550" />
            </Array>
          </mxGeometry>
        </mxCell>
        <mxCell id="juYEJq71N9KY1ARePFDU-5" value="SNMP e SSH" style="edgeLabel;html=1;align=center;verticalAlign=middle;resizable=0;points=[];fontSize=20;fontFamily=Architects Daughter;" vertex="1" connectable="0" parent="b9wr8HyZEDaTZje5uN5I-3">
          <mxGeometry x="-0.3156" relative="1" as="geometry">
            <mxPoint x="-49" as="offset" />
          </mxGeometry>
        </mxCell>
      </root>
    </mxGraphModel>
  </diagram>
</mxfile>
